<mxfile host="app.diagrams.net" modified="2024-05-13T06:27:21.542Z" agent="Mozilla/5.0 (X11; Ubuntu; Linux x86_64; rv:125.0) Gecko/20100101 Firefox/125.0" version="24.4.0" etag="TN7EnddUkcLK8zPGB6rA" type="github">
  <diagram name="Page-1" id="vw2O1joaPwujMAk-joFM">
    <mxGraphModel>
      <root>
        <mxCell id="0" />
        <mxCell id="1" parent="0" />
      </root>
    </mxGraphModel>
  </diagram>
</mxfile>
